# xmcd CD database file
#
# Track frame offsets:
#	150
#	18149
#	39146
#	55472
#	80479
#	102453
#	119894
#	146726
#	174498
#	192162
#	209198
#	229441
#	253864
#	277962
#	297248
#
# Disc length: 4156 seconds
#
# Revision: 1
# Processed by: cddbd v1.5.2PL0 Copyright (c) Steve Scherf et al.
# Submitted via: CDex 1.94
#
DISCID=e9103a0f
DTITLE=Various Artist - City Lounge 1 - New York
DYEAR=2005
DGENRE=Lounge
TTITLE0=Thievery Corporation - Transcendence
TTITLE1=Fertile Ground - Take Me Higher
TTITLE2=Roy Ayers - Searching
TTITLE3=King Britt ft. Ivana Santilli - Superstar
TTITLE4=Ursula Ruckers ft. M.A.D. - 7
TTITLE5=Jay Dee - Think Twice
TTITLE6=Vikter Duplaix - Sensuality
TTITLE7=The Detroit Experiment - Think Twice
TTITLE8=The Peter Malik Group ft. Norah Jones - New York City (DJ Strobe Brooklyn Vibe Mix)
TTITLE9=Jazzy Jeff ft. Baby Blak and Pauly Yamzi - Love Of Da Game
TTITLE10=Dobie - B-Boy Anthem (Instrumental)
TTITLE11=Pete Rock - A Little Soul
TTITLE12=DJ Spinna ft. Shaun Escoffery - Music In Me (Come Alive)
TTITLE13=Siji - Feels Like
TTITLE14=Larry Gold Presents Don Cello and Friends - Travelin'
EXTD=YEAR: 2005
EXTT0=
EXTT1=
EXTT2=
EXTT3=
EXTT4=
EXTT5=
EXTT6=
EXTT7=
EXTT8=
EXTT9=
EXTT10=
EXTT11=
EXTT12=
EXTT13=
EXTT14=
PLAYORDER=
